<svg xmlns="http://www.w3.org/2000/svg" viewBox="0 0 200 200" fill="none" stroke-linecap="round" stroke-linejoin="round">
  <!-- floor -->
  <path d="M24 184 L176 184" stroke="#8A93A6" stroke-width="4"/>
  <!-- rack position (ghost): bar on shoulders -->
  <g stroke="#8A93A6" stroke-width="4" opacity="0.5">
    <circle cx="52" cy="76" r="9"/>
    <path d="M52 85 L52 134"/>
    <path d="M52 96 L36 86 M52 96 L68 86"/>
    <path d="M52 134 L42 184 M52 134 L62 184"/>
    <line x1="30" y1="68" x2="74" y2="68"/>
  </g>
  <!-- overhead lockout -->
  <g stroke="#2BD4F5" stroke-width="4">
    <circle cx="134" cy="76" r="11"/>
    <path d="M134 87 L134 136"/>
    <!-- arms locked overhead -->
    <path d="M134 94 L120 52 M134 94 L148 52"/>
    <path d="M134 136 L124 184 M134 136 L144 184"/>
  </g>
  <!-- barbell overhead -->
  <g stroke="#8A93A6" stroke-width="4">
    <line x1="106" y1="46" x2="164" y2="46"/>
    <line x1="110" y1="38" x2="110" y2="54"/>
    <line x1="160" y1="38" x2="160" y2="54"/>
  </g>
  <!-- up arrow -->
  <path d="M90 132 L90 88 M83 100 L90 84 L97 100" stroke="#8A93A6" stroke-width="4"/>
</svg>
