<svg xmlns="http://www.w3.org/2000/svg" viewBox="0 0 200 200" fill="none" stroke-linecap="round" stroke-linejoin="round">
  <!-- floor -->
  <path d="M24 184 L176 184" stroke="#8A93A6" stroke-width="4"/>
  <!-- squat (ghost): DBs at shoulders -->
  <g stroke="#8A93A6" stroke-width="4" opacity="0.5">
    <circle cx="52" cy="80" r="9"/>
    <path d="M52 89 L50 118"/>
    <path d="M50 118 L68 120 L68 160 M50 118 L32 122 L34 160"/>
    <path d="M52 96 L40 84 M52 96 L64 84"/>
  </g>
  <!-- top: standing, two DBs pressed overhead -->
  <g stroke="#2BD4F5" stroke-width="4">
    <circle cx="134" cy="78" r="11"/>
    <path d="M134 89 L134 138"/>
    <path d="M134 94 L122 56 M134 94 L146 56"/>
    <path d="M134 138 L122 184 M134 138 L146 184"/>
  </g>
  <!-- two dumbbells overhead -->
  <g stroke="#8A93A6" stroke-width="4">
    <rect x="112" y="44" width="16" height="8" rx="2"/>
    <rect x="112" y="56" width="16" height="8" rx="2"/>
    <rect x="140" y="44" width="16" height="8" rx="2"/>
    <rect x="140" y="56" width="16" height="8" rx="2"/>
  </g>
</svg>
